:FULLY-SPECIFIED
:DEGREES
3081
root 0.953121 15.5996 -2.57845 5074.99 -98.0335 -5072.26
lowerback 4.31867 0.817099 -7.80861
upperback -1.53627 0.626772 0.233108
thorax -4.12319 0.513335 4.58032
lowerneck -15.9794 1.97753 1.98739
upperneck 20.5847 2.96072 -3.93101
head 9.20247 1.02711 -1.32028
rclavicle -1.43125e-014 -1.39149e-015
rhumerus -43.9943 -23.7204 -68.3563
rradius 12.6158
rwrist 26.9671
rhand -27.9212 -18.0012
rfingers 7.12502
rthumb -1.30977 -47.9769
lclavicle -1.43125e-014 -1.39149e-015
lhumerus -19.8788 -9.70496 90.5453
lradius 38.2751
lwrist 13.1849
lhand -32.9693 16.0629
lfingers 7.12502
lthumb -6.18454 45.9526
rfemur -30.1424 -0.441471 16.9896
rtibia 57.1815
rfoot -18.4513 -24.128
rtoes -9.48785
lfemur -5.04028 -6.45653 -30.997
ltibia 21.2111
lfoot -14.64 9.27313
ltoes -6.49423
3082
root 0.978372 15.6085 -2.58093 5075.58 -97.9716 -5072.62
lowerback 4.31436 0.819295 -7.89345
upperback -1.6198 0.621729 0.250168
thorax -4.20968 0.518988 4.64611
lowerneck -15.9867 1.94039 1.98391
upperneck 20.5116 2.90998 -3.93165
head 9.17674 1.0049 -1.32569
rclavicle 6.36111e-015 4.17448e-015
rhumerus -43.6364 -23.7675 -68.5683
rradius 12.6483
rwrist 27.1404
rhand -28.1083 -17.7536
rfingers 7.12502
rthumb -1.49047 -47.7281
lclavicle 6.36111e-015 4.17448e-015
lhumerus -19.7138 -9.94209 90.515
lradius 38.7406
lwrist 13.46
lhand -33.2395 15.5214
lfingers 7.12502
lthumb -6.44547 45.4033
rfemur -30.8728 -0.156816 17.1565
rtibia 55.2126
rfoot -18.9788 -24.3017
rtoes -8.41281
lfemur -4.54223 -6.56654 -31.0753
ltibia 20.808
lfoot -14.7259 9.3301
ltoes -6.9682
3083
root 1.00342 15.6004 -2.58559 5076.32 -97.8374 -5073.16
lowerback 4.30759 0.808784 -7.96059
upperback -1.69742 0.601587 0.273618
thorax -4.28623 0.516374 4.70997
lowerneck -15.9435 1.90229 1.95739
upperneck 20.4133 2.85383 -3.88993
head 9.13177 0.983962 -1.31346
rclavicle -1.90833e-014 9.54166e-015
rhumerus -43.1717 -23.6792 -68.9679
rradius 12.6777
rwrist 26.9693
rhand -28.1579 -17.9475
rfingers 7.12502
rthumb -1.53842 -47.9217
lclavicle -1.90833e-014 9.54166e-015
lhumerus -19.6283 -10.2665 90.5131
lradius 39.1619
lwrist 13.4777
lhand -33.1895 15.5463
lfingers 7.12502
lthumb -6.39718 45.4297
rfemur -31.3474 0.0138938 17.3953
rtibia 53.0155
rfoot -18.7991 -24.6163
rtoes -8.50585
lfemur -4.01931 -6.59849 -31.1185
ltibia 20.409
lfoot -14.7469 9.26037
ltoes -7.79148
3084
root 1.0303 15.6079 -2.59031 5076.92 -97.7715 -5073.56
lowerback 4.27482 0.817929 -8.04657
upperback -1.72912 0.610725 0.290888
thorax -4.30415 0.525141 4.77592
lowerneck -15.9351 1.86531 1.92615
upperneck 20.2799 2.80415 -3.86392
head 9.08161 0.9645 -1.30453
rclavicle 6.36111e-015 6.95746e-015
rhumerus -42.6825 -24.1271 -69.0026
rradius 12.5661
rwrist 27.4793
rhand -28.2258 -17.7624
rfingers 7.12502
rthumb -1.604 -47.7361
lclavicle 6.36111e-015 6.95746e-015
lhumerus -19.4409 -10.4911 90.5121
lradius 39.4342
lwrist 13.546
lhand -33.2069 15.5692
lfingers 7.12502
lthumb -6.41394 45.4521
rfemur -31.8419 0.312795 17.5497
rtibia 50.8027
rfoot -19.1143 -24.5124
rtoes -7.5979
lfemur -3.37877 -6.67433 -31.1717
ltibia 19.8216
lfoot -14.7917 9.16601
ltoes -7.92474
3085
root 1.05392 15.6067 -2.59513 5077.94 -97.8192 -5074.42
lowerback 4.29687 0.867723 -8.21921
upperback -1.7896 0.659283 0.253134
thorax -4.39037 0.558285 4.82905
lowerneck -15.9319 1.81363 1.91789
upperneck 20.2388 2.72882 -3.83845
head 9.06382 0.932651 -1.30353
rclavicle 3.97569e-015 -2.10712e-014
rhumerus -42.2736 -24.6019 -69.0311
rradius 12.468
rwrist 28.046
rhand -28.4304 -17.6994
rfingers 7.12502
rthumb -1.80156 -47.6715
lclavicle 3.97569e-015 -2.10712e-014
lhumerus -19.3994 -10.7986 90.5347
lradius 39.6956
lwrist 13.6139
lhand -33.1989 15.5615
lfingers 7.12502
lthumb -6.40621 45.4447
rfemur -32.1989 0.65588 17.513
rtibia 48.4644
rfoot -19.1026 -24.1724
rtoes -6.83959
lfemur -2.72099 -6.59927 -31.3452
ltibia 19.2625
lfoot -14.8805 8.93333
ltoes -7.76505
3086
root 1.08243 15.6106 -2.60226 5078.82 -97.7895 -5075.03
lowerback 4.23392 0.905109 -8.31751
upperback -1.85254 0.704192 0.225859
thorax -4.42922 0.58604 4.85208
lowerneck -16.0234 1.73975 1.88066
upperneck 20.2032 2.62317 -3.77806
head 9.06346 0.887821 -1.28905
rclavicle 1.27222e-014 -3.57812e-015
rhumerus -41.7299 -25.0858 -69.1774
rradius 12.3256
rwrist 28.4706
rhand -28.643 -17.6134
rfingers 7.12502
rthumb -2.00689 -47.5837
lclavicle 1.27222e-014 -3.57812e-015
lhumerus -19.3329 -11.0513 90.5648
lradius 39.8913
lwrist 13.5484
lhand -33.1588 15.4145
lfingers 7.12502
lthumb -6.36756 45.2988
rfemur -32.6409 1.02544 17.5845
rtibia 46.0567
rfoot -18.6941 -23.8676
rtoes -7.78086
lfemur -2.12167 -6.50911 -31.3919
ltibia 18.5098
lfoot -14.7182 8.6668
ltoes -8.67002
3087
root 1.10644 15.6148 -2.61041 5079.41 -97.7916 -5075.43
lowerback 4.20382 0.958905 -8.40793
upperback -1.89317 0.769795 0.203101
thorax -4.46636 0.623286 4.87353
lowerneck -16.0783 1.68036 1.89033
upperneck 20.1561 2.54024 -3.78464
head 9.05486 0.850122 -1.30264
rclavicle -1.43125e-014 2.40529e-014
rhumerus -41.1277 -25.3643 -69.5051
rradius 12.3105
rwrist 28.7479
rhand -28.5769 -17.7421
rfingers 7.12502
rthumb -1.94305 -47.713
lclavicle -1.43125e-014 2.40529e-014
lhumerus -19.3046 -11.3095 90.6116
lradius 40.0531
lwrist 13.5543
lhand -33.1888 15.4568
lfingers 7.12502
lthumb -6.39645 45.3402
rfemur -32.8804 1.44859 17.5711
rtibia 43.5413
rfoot -18.3189 -23.1491
rtoes -8.10608
lfemur -1.34674 -6.35147 -31.4426
ltibia 17.6643
lfoot -14.544 8.42795
ltoes -9.02569
3088
root 1.13096 15.6231 -2.61799 5080.75 -97.7465 -5076.51
lowerback 4.10999 0.96797 -8.51961
upperback -1.95283 0.779007 0.171323
thorax -4.47939 0.632505 4.90264
lowerneck -16.0618 1.62336 1.84463
upperneck 20.0716 2.46295 -3.74123
head 9.01901 0.817362 -1.28918
rclavicle -1.43125e-014 2.36554e-014
rhumerus -40.5045 -25.7387 -69.7657
rradius 12.2132
rwrist 29.2228
rhand -28.7178 -17.7216
rfingers 7.12502
rthumb -2.07914 -47.6912
lclavicle -1.43125e-014 2.36554e-014
lhumerus -19.3622 -11.4318 90.7068
lradius 40.199
lwrist 13.6117
lhand -33.3225 15.391
lfingers 7.12502
lthumb -6.52557 45.2704
rfemur -33.1149 1.79601 17.4487
rtibia 40.9304
rfoot -17.9473 -22.2095
rtoes -8.47826
lfemur -0.586422 -6.1792 -31.52
ltibia 16.7015
lfoot -14.3569 8.09266
ltoes -9.82801
3089
root 1.15233 15.6362 -2.62589 5081.88 -97.69 -5077.37
lowerback 3.99036 0.96534 -8.58295
upperback -2.02672 0.777431 0.139858
thorax -4.49008 0.635322 4.90588
lowerneck -16.0368 1.57111 1.80127
upperneck 19.9944 2.38604 -3.6726
head 8.98394 0.78762 -1.26752
rclavicle -8.74653e-015 1.88845e-014
rhumerus -39.6629 -25.64 -70.4998
rradius 12.2587
rwrist 28.5067
rhand -28.7344 -17.8082
rfingers 7.12502
rthumb -2.09516 -47.7777
lclavicle -8.74653e-015 1.88845e-014
lhumerus -19.4258 -11.5669 90.7644
lradius 40.1618
lwrist 13.6306
lhand -33.3458 15.3205
lfingers 7.12502
lthumb -6.54803 45.1993
rfemur -33.2486 2.31025 17.3121
rtibia 38.2482
rfoot -17.395 -21.3954
rtoes -9.54827
lfemur 0.23694 -5.96184 -31.5513
ltibia 15.5748
lfoot -13.979 7.66405
ltoes -10.4502
3090
root 1.1721 15.6482 -2.63331 5082.95 -97.6083 -5078.16
lowerback 3.81265 0.982796 -8.56825
upperback -2.05795 0.815232 0.102825
thorax -4.42661 0.650987 4.85693
lowerneck -16.0422 1.51465 1.7896
upperneck 19.894 2.31209 -3.67858
head 8.94805 0.753767 -1.27595
rclavicle -8.34896e-015 -1.31198e-014
rhumerus -39.0145 -26.2508 -70.6601
rradius 12.0824
rwrist 29.5966
rhand -28.9604 -17.5275
rfingers 7.12502
rthumb -2.31346 -47.4947
lclavicle -8.34896e-015 -1.31198e-014
lhumerus -19.5054 -11.7172 90.8819
lradius 40.1869
lwrist 13.6602
lhand -33.2448 15.3918
lfingers 7.12502
lthumb -6.4505 45.2736
rfemur -33.315 2.97221 17.1384
rtibia 35.5414
rfoot -16.8326 -20.7932
rtoes -10.7701
lfemur 1.15065 -5.88162 -31.57
ltibia 14.3211
lfoot -13.5415 7.33625
ltoes -10.8049
